<svg version="1.0" xmlns="http://www.w3.org/2000/svg" width="1706.667" height="1352" viewBox="0 0 1280 1014"><path d="M265.5 1C204 5.2 149.6 19 107.2 41 82.8 53.7 66 65.9 49.9 82.7c-23.4 24.6-35.8 50.6-39.4 82.7-.4 3.2-1.7 9.1-3 13.1-6.1 18.7-8.7 43.3-6.6 63 2.6 23.6 8.2 42.7 19.6 66C53 374 122.5 434.1 213.9 474.7c60.9 27 129 43.8 199.5 49.3 16.7 1.3 62.7 1.3 79.2 0 36.1-2.9 72.8-9.7 101.4-18.9l8.8-2.8 3.9 3.9c2.1 2.2 13.5 12.5 25.3 22.8 19.5 17.2 21.7 19.4 23.3 23.9 4.1 11.6 23.1 34.1 44.2 52.1 4.5 3.9 67.1 66.5 139.1 139.2 232.7 234.7 238.1 240.1 246.8 245.9 14.9 9.8 34.7 17.7 54.1 21.5 12.4 2.4 40.5 2.5 52.7.1 45.4-9 78.3-37.4 86-74.3 5.7-27.9-4.1-57.1-26.9-79.8-4.2-4.1-30.6-24.1-68.8-52-34.1-24.9-131.5-96-216.4-158S806.3 530.4 799.6 524.9c-22.9-18.9-39.9-29.7-56.1-35.5-9.7-3.5-9.8-3.5-28.6-20-10.4-9.2-18.9-16.8-18.9-17 0-.1 4.8-4.9 10.6-10.6 31.6-30.6 48.2-63.4 52.9-103.8.4-3 1.7-8.8 3.1-12.8 4.8-14.7 5.9-22.5 5.8-41.2 0-14.1-.4-19.4-2.2-27.3-8.5-38.5-28.4-72-64.1-107.8-20.2-20.2-37.4-34.3-61.6-50.3-79.8-52.9-177.4-85.7-286-96.2-19-1.8-70.7-2.6-89-1.4zM353 58.4c44.9 5 83.1 12.7 122 24.5 64.8 19.7 120.6 47.6 167 83.5 12 9.3 40 36.7 48.3 47.2 18.4 23.4 30.1 48 34.1 71.3 2.9 17 2.2 20-7.6 33.3-41.7 56.6-155.4 84.2-287.6 69.7-131.8-14.4-258.6-67-327.2-135.8-27.9-27.9-44.5-57.2-48.1-84.7l-1.2-9.1 3.7-6.9c14.9-27.2 43.3-50.7 81.1-67 35.1-15.1 72-23.3 125.5-27.8 11.9-1 76.3.3 90 1.8z"/></svg>